PathFileType	4	(X/Y/Z)	Exemple_fichier.trc																																					
DataRate	CameraRate	NumFrames	NumMarkers	Units	OrigDataRate	OrigDataStartFrame	OrigNumFrames																																	
100	100	30	13	m	100	251	1000																																	
Frame#	Time	C7			T10			CLAV			STRN			RSHO			RUPA			RELB			RFRA			RWRA			RWRB			RFIN0			RFINx			RFINy		
		X1	Y1	Z1	X2	Y2	Z2	X3	Y3	Z3	X4	Y4	Z4	X5	Y5	Z5	X6	Y6	Z6	X7	Y7	Z7	X8	Y8	Z8	X9	Y9	Z9	X10	Y10	Z10	X11	Y11	Z11	X12	Y12	Z12	X13	Y13	Z13
																																								
251	2.5	0.4351681	1.28915	-0.09230545	0.4389526	1.150682	-0.06376348	0.4454999	1.232634	-0.2185411	0.4450508	1.10201	-0.3253794	0.5857017	1.265058	-0.1639022	0.7251719	1.167169	-0.25289	0.7881832	1.121704	-0.2737146	0.6781889	1.184321	-0.3875268	0.6278008	1.17451	-0.4215518	0.6603122	1.205692	-0.4442781	0.6187661	1.224776	-0.4790229	0.6025954	1.233522	-0.4877129	0.5991352	1.217578	-0.4555558
252	2.51	0.4352588	1.289162	-0.09227564	0.4390029	1.150662	-0.06367796	0.4455175	1.232571	-0.2184544	0.4449576	1.101976	-0.3253315	0.5858197	1.264864	-0.1639205	0.7250854	1.166408	-0.2528648	0.7880561	1.120829	-0.273496	0.6780033	1.182774	-0.3876343	0.627394	1.172936	-0.4223598	0.6601205	1.203872	-0.4444357	0.6185576	1.222837	-0.4790931	0.6023132	1.231549	-0.487771	0.5990081	1.21567	-0.4555819
253	2.52	0.4353501	1.289172	-0.09224477	0.4390457	1.150639	-0.06359387	0.4455396	1.232505	-0.2183646	0.4448721	1.101944	-0.32527	0.5859384	1.264669	-0.1639327	0.7249977	1.165655	-0.2528377	0.7879243	1.119966	-0.2732832	0.6778156	1.181237	-0.3877495	0.6270051	1.171263	-0.423144	0.6599268	1.202057	-0.4446007	0.6183455	1.22091	-0.4791582	0.6020213	1.229587	-0.4878205	0.5988738	1.213766	-0.4556001
254	2.53	0.4354438	1.289179	-0.0922136	0.4390831	1.150613	-0.06351357	0.4455685	1.232438	-0.2182732	0.4447948	1.101913	-0.3251952	0.58606	1.264473	-0.1639404	0.7249116	1.164904	-0.2528055	0.7877886	1.119107	-0.2730731	0.6776282	1.179709	-0.3878687	0.6266485	1.169509	-0.4238766	0.6597359	1.200243	-0.4447715	0.6181393	1.218995	-0.4792193	0.6017374	1.227638	-0.4878609	0.5987408	1.211866	-0.455611
255	2.54	0.4355404	1.289185	-0.09218234	0.4391156	1.150584	-0.06343807	0.4456063	1.232368	-0.2181825	0.4447263	1.101881	-0.3251094	0.5861866	1.264274	-0.1639442	0.7248294	1.164151	-0.2527651	0.7876501	1.118245	-0.2728629	0.6774433	1.178186	-0.3879869	0.6263391	1.167705	-0.4245283	0.6595509	1.19843	-0.4449448	0.6179464	1.217093	-0.4792778	0.6014778	1.225704	-0.4878932	0.5986157	1.209974	-0.4556155
256	2.55	0.4356406	1.289187	-0.09215108	0.4391435	1.150552	-0.06336751	0.4456543	1.232297	-0.218095	0.4446694	1.101848	-0.3250165	0.5863202	1.264071	-0.1639431	0.7247527	1.163389	-0.2527144	0.78751	1.117373	-0.2726498	0.6772632	1.176668	-0.3880977	0.626091	1.165887	-0.4250728	0.6593739	1.19662	-0.4451156	0.6177714	1.215204	-0.4793341	0.6012536	1.223789	-0.4879187	0.5985027	1.208093	-0.4556139
257	2.56	0.4357445	1.289187	-0.0921202	0.439167	1.150517	-0.06330181	0.4457132	1.232227	-0.2180125	0.4446286	1.101812	-0.3249224	0.5864621	1.263861	-0.1639354	0.7246827	1.162615	-0.2526517	0.7873698	1.116485	-0.2724307	0.6770894	1.175153	-0.3881949	0.6259127	1.164089	-0.4254929	0.6592058	1.194814	-0.445277	0.6176165	1.213331	-0.479387	0.6010687	1.221892	-0.4879377	0.598403	1.206226	-0.4556053
258	2.57	0.4358512	1.289184	-0.09209047	0.4391864	1.15048	-0.06324134	0.4457831	1.232157	-0.2179365	0.4446099	1.101775	-0.3248337	0.5866135	1.263646	-0.1639192	0.7246201	1.161824	-0.2525756	0.7872309	1.115577	-0.2722027	0.6769225	1.17364	-0.388273	0.6258001	1.162334	-0.4257856	0.659047	1.193013	-0.4454215	0.6174817	1.211471	-0.479434	0.6009208	1.220012	-0.4879497	0.5983154	1.204373	-0.4555881
259	2.58	0.4359591	1.289178	-0.09206306	0.439202	1.15044	-0.06318715	0.4458639	1.23209	-0.2178675	0.4446185	1.101737	-0.324757	0.5867745	1.263425	-0.1638926	0.7245654	1.161016	-0.2524847	0.7870941	1.114647	-0.2719625	0.6767622	1.172126	-0.3883272	0.6257359	1.160619	-0.4259613	0.6588969	1.191218	-0.4455421	0.6173655	1.209623	-0.4794733	0.6008029	1.218144	-0.4879547	0.5982374	1.202533	-0.4555612
260	2.59	0.4360668	1.28917	-0.09203927	0.4392139	1.150398	-0.06314086	0.4459548	1.232026	-0.2178061	0.4446583	1.1017	-0.3246978	0.5869452	1.263201	-0.1638548	0.7245189	1.160191	-0.2523771	0.7869595	1.113695	-0.2717063	0.676608	1.17061	-0.388354	0.6256978	1.158931	-0.4260377	0.6587548	1.189427	-0.4456341	0.6172648	1.207781	-0.4795043	0.6007055	1.216282	-0.4879544	0.5981656	1.200703	-0.4555252
261	2.6	0.4361733	1.289159	-0.09202035	0.4392225	1.150356	-0.06310421	0.4460552	1.231964	-0.2177526	0.4447303	1.101666	-0.324659	0.5871247	1.262974	-0.163806	0.7244805	1.15935	-0.2522502	0.7868271	1.11272	-0.2714303	0.6764597	1.16909	-0.3883518	0.6256672	1.157254	-0.4260335	0.6586195	1.187637	-0.4456957	0.6171747	1.205935	-0.4795283	0.6006191	1.214414	-0.4879533	0.5980963	1.198876	-0.4554835
262	2.61	0.4362784	1.289147	-0.09200744	0.4392283	1.150313	-0.06307845	0.4461641	1.231906	-0.2177075	0.4448318	1.101636	-0.3246403	0.5873114	1.262747	-0.1637475	0.72445	1.158495	-0.2521014	0.7866968	1.111725	-0.2711309	0.6763177	1.167563	-0.3883208	0.6256325	1.155577	-0.4259657	0.6584901	1.185844	-0.4457282	0.6170899	1.204072	-0.4795484	0.6005366	1.212526	-0.4879576	0.5980258	1.197044	-0.4554415
263	2.62	0.4363816	1.289133	-0.0920014	0.4392321	1.150271	-0.06306403	0.4462805	1.231849	-0.2176713	0.4449577	1.10161	-0.3246387	0.5875037	1.26252	-0.1636806	0.7244265	1.157629	-0.2519285	0.7865686	1.110712	-0.2708057	0.6761831	1.166027	-0.3882631	0.625589	1.153889	-0.4258486	0.6583664	1.184039	-0.4457356	0.6170064	1.20218	-0.4795688	0.6004549	1.210605	-0.4879739	0.597951	1.1952	-0.4554051
264	2.63	0.4364814	1.289117	-0.09200275	0.4392345	1.150229	-0.0630605	0.4464029	1.231793	-0.2176445	0.4451015	1.10159	-0.3246499	0.5876997	1.262296	-0.1636068	0.724409	1.156754	-0.25173	0.7864425	1.109685	-0.2704532	0.6760574	1.164477	-0.3881826	0.625536	1.152182	-0.4256949	0.6582487	1.182214	-0.4457245	0.6169229	1.200245	-0.4795933	0.6003738	1.208637	-0.4880077	0.5978711	1.193332	-0.455379
265	2.64	0.4365755	1.289101	-0.0920116	0.4392359	1.150188	-0.0630665	0.446529	1.231738	-0.2176268	0.4452561	1.101573	-0.3246692	0.5878971	1.262074	-0.1635269	0.7243966	1.155873	-0.2515059	0.7863184	1.108648	-0.2700737	0.6759422	1.162909	-0.3880845	0.6254751	1.150448	-0.425516	0.6581384	1.180361	-0.445703	0.6168413	1.198258	-0.4796245	0.6002952	1.206614	-0.4880614	0.5977885	1.19143	-0.4553658
266	2.65	0.436661	1.289086	-0.09202785	0.4392363	1.150147	-0.06307986	0.446656	1.231683	-0.2176175	0.445414	1.101559	-0.3246922	0.5880933	1.261854	-0.1634419	0.7243885	1.154989	-0.2512573	0.7861963	1.107606	-0.2696686	0.6758392	1.161317	-0.3879757	0.6254096	1.148678	-0.4253225	0.6580381	1.178468	-0.4456797	0.6167657	1.196213	-0.4796634	0.600222	1.204527	-0.4881345	0.5977087	1.189486	-0.4553655
267	2.66	0.4367351	1.289072	-0.09205126	0.4392357	1.150108	-0.06309806	0.4467811	1.231628	-0.2176151	0.4455688	1.101544	-0.3247148	0.5882851	1.261634	-0.1633525	0.7243842	1.154103	-0.2509872	0.7860764	1.106562	-0.2692401	0.6757501	1.159695	-0.3878639	0.6253442	1.146866	-0.4251246	0.6579514	1.176527	-0.4456627	0.6167014	1.194103	-0.4797106	0.6001575	1.202375	-0.4882243	0.5976395	1.187493	-0.4553769
268	2.67	0.4367955	1.289061	-0.09208173	0.439234	1.15007	-0.06311895	0.4469017	1.231572	-0.2176172	0.4457177	1.101527	-0.3247357	0.5884696	1.261413	-0.1632599	0.724383	1.153218	-0.2506995	0.7859586	1.105521	-0.2687915	0.6756761	1.158039	-0.387757	0.6252838	1.145007	-0.4249307	0.6578815	1.174533	-0.4456578	0.6166541	1.191929	-0.4797669	0.6001056	1.200157	-0.488328	0.5975888	1.185447	-0.455399
269	2.68	0.4368411	1.289053	-0.09211927	0.4392311	1.150035	-0.06314101	0.4470154	1.231514	-0.2176212	0.4458631	1.101509	-0.3247558	0.5886449	1.261193	-0.1631654	0.724384	1.152336	-0.2503995	0.7858427	1.104486	-0.2683267	0.6756171	1.156349	-0.3876608	0.625232	1.143102	-0.4247473	0.6578304	1.172483	-0.4456688	0.6166288	1.189692	-0.4798348	0.6000707	1.197875	-0.4884452	0.5975632	1.183348	-0.4554322
270	2.69	0.4368719	1.289049	-0.09216378	0.439227	1.150002	-0.06316354	0.4471209	1.231453	-0.2176247	0.4460081	1.101488	-0.3247762	0.5888098	1.260972	-0.1630699	0.7243859	1.151459	-0.2500926	0.7857277	1.103458	-0.2678501	0.6755714	1.154627	-0.3875783	0.6251908	1.141153	-0.4245773	0.6577988	1.170379	-0.4456978	0.6166291	1.187396	-0.479919	0.6000567	1.195535	-0.488579	0.5975654	1.181204	-0.4554796
271	2.7	0.4368891	1.289048	-0.09221468	0.4392221	1.14997	-0.06318656	0.4472177	1.23139	-0.2176266	0.4461534	1.101464	-0.3247967	0.5889637	1.260751	-0.1629742	0.7243868	1.150587	-0.2497836	0.7856115	1.102441	-0.2673659	0.6755361	1.152877	-0.3875092	0.6251599	1.139167	-0.4244213	0.6577862	1.168229	-0.4457457	0.6166565	1.185048	-0.4800257	0.6000663	1.193141	-0.4887356	0.5975936	1.179022	-0.455547
272	2.71	0.4368945	1.289052	-0.09227093	0.4392171	1.14994	-0.06321041	0.447306	1.231324	-0.2176266	0.4462968	1.101435	-0.3248164	0.5891062	1.260532	-0.1628792	0.7243841	1.149721	-0.2494764	0.7854915	1.101432	-0.2668778	0.6755077	1.151106	-0.3874517	0.6251367	1.137154	-0.4242787	0.657791	1.166042	-0.4458118	0.6167094	1.182655	-0.480161	0.6000996	1.190701	-0.4889223	0.5976428	1.176812	-0.4556404
273	2.72	0.4368908	1.289058	-0.09233134	0.4392129	1.149909	-0.06323542	0.4473862	1.231257	-0.2176247	0.446434	1.1014	-0.3248345	0.589237	1.260315	-0.1627854	0.7243745	1.148864	-0.2491747	0.7853653	1.100433	-0.2663892	0.6754823	1.149322	-0.387403	0.6251173	1.135125	-0.424148	0.6578104	1.163828	-0.4458954	0.6167836	1.180226	-0.480329	0.6001544	1.188222	-0.4891442	0.5977066	1.174585	-0.4557646
274	2.73	0.4368811	1.289067	-0.0923949	0.4392101	1.149877	-0.06326176	0.4474585	1.231187	-0.2176214	0.4465604	1.101356	-0.3248509	0.5893562	1.260099	-0.1626937	0.7243544	1.148017	-0.2488811	0.7852309	1.099443	-0.2659028	0.6754556	1.147529	-0.3873617	0.6250977	1.133088	-0.4240274	0.6578418	1.1616	-0.4459953	0.6168731	1.17777	-0.4805295	0.6002268	1.185716	-0.4894018	0.5977786	1.172349	-0.4559202
275	2.74	0.4368691	1.289078	-0.09246107	0.4392087	1.149844	-0.06328949	0.4475228	1.231117	-0.2176172	0.4466716	1.101305	-0.3248656	0.5894643	1.259885	-0.1626056	0.7243203	1.147181	-0.2485981	0.7850871	1.09846	-0.2654217	0.6754239	1.145734	-0.3873274	0.625075	1.131054	-0.4239145	0.6578839	1.159366	-0.4461106	0.6169703	1.175299	-0.4807576	0.6003118	1.183193	-0.4896901	0.5978528	1.170113	-0.4561037
276	2.75	0.4368581	1.28909	-0.09252974	0.4392081	1.14981	-0.06331874	0.4475788	1.231047	-0.217613	0.4467644	1.101247	-0.324879	0.5895621	1.259674	-0.1625219	0.7242707	1.146355	-0.2483274	0.7849333	1.097483	-0.2649487	0.6753851	1.143942	-0.3873007	0.6250469	1.129028	-0.4238073	0.657937	1.157135	-0.4462402	0.6170679	1.172824	-0.4810052	0.6004034	1.180666	-0.4899991	0.5979235	1.167883	-0.4563071
277	2.76	0.4368506	1.289106	-0.09260088	0.439207	1.149777	-0.06334974	0.4476268	1.230979	-0.2176098	0.4468372	1.101185	-0.324891	0.5896514	1.259467	-0.1624436	0.7242052	1.145539	-0.2480698	0.7847694	1.096512	-0.2644863	0.6753382	1.142158	-0.3872819	0.6250119	1.127017	-0.4237038	0.6580025	1.154917	-0.4463825	0.6171594	1.170359	-0.4812626	0.600496	1.178149	-0.4903165	0.5979861	1.165667	-0.4565197
278	2.77	0.4368488	1.289123	-0.0926743	0.4392043	1.149746	-0.06338256	0.4476676	1.230916	-0.2176085	0.4468901	1.101124	-0.3249022	0.5897343	1.259264	-0.1623714	0.7241248	1.14473	-0.2478249	0.7845959	1.095543	-0.264036	0.6752828	1.140388	-0.3872704	0.6249691	1.125026	-0.4236025	0.6580819	1.15272	-0.4465346	0.6172404	1.167915	-0.4815203	0.6005848	1.175654	-0.4906299	0.5980375	1.16347	-0.4567314
279	2.78	0.4368544	1.289142	-0.09274965	0.4391989	1.149718	-0.06341683	0.4477023	1.230857	-0.21761	0.4469249	1.101069	-0.3249134	0.5898134	1.259068	-0.1623061	0.7240313	1.143926	-0.2475915	0.7844136	1.094578	-0.263598	0.6752182	1.138638	-0.3872636	0.6249187	1.123062	-0.4235013	0.6581738	1.150551	-0.4466917	0.6173086	1.165502	-0.4817707	0.6006667	1.173194	-0.4909299	0.5980755	1.161299	-0.4569344
280	2.79	0.4368685	1.289165	-0.09282666	0.4391899	1.149694	-0.06345175	0.4477324	1.230803	-0.217615	0.4469443	1.101026	-0.3249267	0.5898913	1.258878	-0.1622486	0.7239272	1.143124	-0.2473673	0.7842233	1.093615	-0.2631713	0.6751439	1.136912	-0.3872575	0.6248623	1.121127	-0.4233982	0.6582723	1.148415	-0.4468463	0.6173633	1.163129	-0.4820081	0.6007395	1.170778	-0.491211	0.5980995	1.159161	-0.4571245
